# xmcd
#
# Track frame offsets:
#	150
#	16907
#	33490
#	51733
#	69179
#	85638
#	97374
#	121368
#	141777
#	154575
#
# Disc length: 2250 seconds
#
# Revision: 0
# Processed by: cddbd v1.5.2PL0 Copyright (c) Steve Scherf et al.
# Submitted via: EasyCDDAExtractor 12.0.1.1
#
DISCID=8308c80a
DTITLE=Mickey Hart - Rolling Thunder
DYEAR=1972
DGENRE=Classic Rock
TTITLE0=Rolling Thunder
TTITLE1=The Main Ten
TTITLE2=Fletcher Carnaby
TTITLE3=The Chase Progress
TTITLE4=Blind John
TTITLE5=Young Man
TTITLE6=Deep Wide and Frequent
TTITLE7=Pump Song
TTITLE8=Grandmas Cookies
TTITLE9=Hangin On
EXTD=
EXTT0=
EXTT1=
EXTT2=
EXTT3=
EXTT4=
EXTT5=
EXTT6=
EXTT7=
EXTT8=
EXTT9=
PLAYORDER=
